<svg width="200" height="200" viewBox="0 0 200 200" fill="none" xmlns="http://www.w3.org/2000/svg">
<path fill-rule="evenodd" clip-rule="evenodd" d="M61.8965 99.7331C76.8667 96.6711 114.061 91.7103 142.046 97.2224C145.359 97.875 147.906 100.538 148.41 103.877C150.5 117.72 151.383 138.817 146.863 156.989C144.598 166.098 140.827 175.083 134.603 181.991C128.178 189.12 119.425 193.69 108.27 194.066C95.6122 194.493 85.417 190.895 77.5557 184.304C69.8634 177.855 65.0049 169.048 61.875 159.981C55.6872 142.056 55.5 120.757 55.5 107.571C55.5002 103.771 58.1735 100.495 61.8965 99.7331ZM133.315 111.988C112.472 109.137 86.7629 111.72 71.543 114.231C71.7192 126.796 72.6229 142.081 77 154.76C79.5575 162.169 83.1056 168.078 87.835 172.044C92.3955 175.867 98.6379 178.382 107.73 178.076C114.375 177.852 119.085 175.31 122.717 171.28C126.548 167.028 129.427 160.806 131.337 153.128C134.625 139.907 134.597 124.182 133.315 111.988Z" fill="white"/>
<path d="M42.4053 7.52025C45.6895 5.17685 49.2443 5.82624 51.2178 6.67846C53.0111 7.45296 54.336 8.65553 55.1113 9.42943C56.7789 11.0939 58.4125 13.3707 59.875 15.6072C62.8983 20.2306 66.408 26.5977 69.749 32.8738C73.2367 39.4254 76.3533 45.5125 79.1484 50.7126C80.5054 53.2371 81.6505 55.2939 82.5459 56.7712C82.9928 57.5085 83.3145 57.9966 83.5215 58.2839C86.419 61.0416 86.8591 65.5921 84.4004 68.8708C81.7495 72.4053 76.7348 73.1221 73.2002 70.4714C71.8948 69.4923 70.9696 68.2311 70.5576 67.6609C69.9932 66.8795 69.4178 65.9807 68.8623 65.0642C67.7441 63.2194 66.4397 60.8646 65.0547 58.2878C62.3656 53.285 58.8256 46.4027 55.626 40.3923C52.761 35.0104 49.9956 29.9931 47.6367 26.1794C45.7726 28.8456 43.6081 32.0665 41.3301 35.5232C35.8395 43.8545 29.9513 53.1452 26.2168 58.9167L25.7559 59.6287L25.1572 60.2283C24.3636 61.0219 22.9414 63.377 21.376 67.1052C19.9448 70.5136 18.802 74.0591 18.2119 76.198C17.037 80.457 12.6321 82.9576 8.37305 81.783C4.11391 80.608 1.61315 76.2023 2.78809 71.9431C3.53143 69.2486 4.8888 65.0434 6.62402 60.9109C8.11019 57.3715 10.2949 52.8286 13.165 49.6306C16.8005 43.9999 22.6356 34.8125 27.9697 26.7185C30.7409 22.5136 33.4439 18.5019 35.7061 15.3357C36.8333 13.7579 37.9025 12.3184 38.8477 11.1413C39.6349 10.1609 40.811 8.75048 42.0889 7.75658L42.4053 7.52025Z" fill="white"/>
<path d="M159.839 12.2429C163.527 11.4067 166.752 12.6075 168.908 13.8728C171.139 15.1815 173.059 17.0195 174.65 18.8298C177.863 22.4846 180.976 27.4683 183.764 32.6814C189.38 43.1827 194.549 56.2716 197.213 65.949C198.385 70.2088 195.883 74.6124 191.623 75.7849C187.363 76.9573 182.96 74.4547 181.787 70.1951C179.451 61.7059 174.733 49.7208 169.655 40.2273C167.097 35.4432 164.66 31.6988 162.633 29.3933C162.383 29.109 162.156 28.8674 161.955 28.6628C161.146 29.2401 160.079 30.1602 158.779 31.5857C156.449 34.1423 154.054 37.5613 151.793 41.3201C147.236 48.8963 143.877 56.7398 143.09 59.1023C142.556 60.7051 142.13 63.05 141.854 65.6072C141.585 68.0903 141.5 70.3532 141.5 71.572C141.5 75.9903 137.918 79.572 133.5 79.572C129.082 79.572 125.5 75.9903 125.5 71.572C125.5 68.3806 125.886 60.1129 127.91 54.0417C129.123 50.4036 133.015 41.4964 138.082 33.073C140.633 28.8318 143.645 24.4373 146.955 20.8064C150.091 17.3662 154.326 13.6746 159.48 12.3298L159.839 12.2429Z" fill="white"/>
</svg>
