<svg width="16" height="16" viewBox="0 0 16 16" fill="none" xmlns="http://www.w3.org/2000/svg">
<g clip-path="url(#clip0_29_47)">
<path d="M8.21902 1L8.58202 2.453L8.72502 3.024L9.29402 3.176C10.146 3.404 10.921 3.85 11.537 4.465L11.953 4.882L12.519 4.72L13.953 4.31L14.172 4.69L13.095 5.731L12.672 6.14L12.824 6.708C12.941 7.144 13 7.579 13 8C13 8.421 12.941 8.856 12.824 9.292L12.672 9.86L13.095 10.269L14.172 11.31L13.953 11.69L12.519 11.28L11.953 11.118L11.537 11.534C10.922 12.15 10.146 12.596 9.29402 12.823L8.72502 12.975L8.58202 13.546L8.21902 15H7.78102L7.41802 13.547L7.27502 12.976L6.70602 12.824C5.85402 12.596 5.07902 12.15 4.46302 11.535L4.04702 11.118L3.48102 11.28L2.04702 11.69L1.82802 11.31L2.90502 10.269L3.32802 9.86L3.17602 9.292C3.05902 8.856 3.00002 8.421 3.00002 8C3.00002 7.579 3.05902 7.144 3.17602 6.708L3.32802 6.14L2.90502 5.731L1.82802 4.69L2.04702 4.31L3.48102 4.72L4.04702 4.882L4.46302 4.465C5.07902 3.85 5.85402 3.404 6.70602 3.176L7.27502 3.024L7.41802 2.453L7.78102 1H8.21902ZM8.00002 11C9.65402 11 11 9.654 11 8C11 6.346 9.65402 5 8.00002 5C6.34602 5 5.00002 6.346 5.00002 8C5.00002 9.654 6.34602 11 8.00002 11ZM9.00002 0H7.00002L6.44702 2.21C5.41502 2.487 4.49002 3.025 3.75602 3.759L1.57202 3.134L0.572021 4.866L2.21002 6.45C2.07702 6.945 2.00002 7.463 2.00002 8C2.00002 8.537 2.07702 9.055 2.21002 9.55L0.572021 11.134L1.57202 12.866L3.75602 12.241C4.49002 12.975 5.41502 13.513 6.44702 13.79L7.00002 16H9.00002L9.55302 13.79C10.585 13.514 11.511 12.975 12.244 12.241L14.428 12.866L15.428 11.134L13.79 9.55C13.923 9.055 14 8.537 14 8C14 7.463 13.923 6.945 13.79 6.45L15.428 4.866L14.428 3.134L12.244 3.759C11.51 3.025 10.585 2.487 9.55302 2.21L9.00002 0ZM8.00002 10C6.89502 10 6.00002 9.105 6.00002 8C6.00002 6.895 6.89502 6 8.00002 6C9.10502 6 10 6.895 10 8C10 9.105 9.10502 10 8.00002 10Z" fill="white"/>
</g>
<defs>
<clipPath id="clip0_29_47">
<rect width="16" height="16" fill="white"/>
</clipPath>
</defs>
</svg>
